<?xml version="1.0" encoding="utf-8"?>
<!-- Generator: Adobe Illustrator 21.0.2, SVG Export Plug-In . SVG Version: 6.00 Build 0)  -->
<svg version="1.1" id="Layer_1" xmlns="http://www.w3.org/2000/svg" xmlns:xlink="http://www.w3.org/1999/xlink" x="0px" y="0px"
	 viewBox="0 0 32 32" style="enable-background:new 0 0 32 32;" xml:space="preserve">
<style type="text/css">
	.st0{fill:#231F20;}
</style>
<title>Artboard 103</title>
<path class="st0" d="M8.5,23h12c3.1-0.1,5.5-2.6,5.5-5.6c0-0.4-0.1-0.9-0.2-1.3c2.3-0.6,3.6-2.9,3-5.1c-0.5-1.8-2-3-3.8-3.2
	c-0.7-2.2-3-3.5-5.3-2.8c-1.4,0.4-2.5,1.6-2.9,3c-2.9-0.8-5.9,0.8-6.7,3.7c0,0.1-0.1,0.2-0.1,0.3c-0.5-0.2-1.1-0.3-1.7-0.3
	c-3.1,0-5.6,2.5-5.6,5.6S5.4,23,8.5,23z M21,5.8c1.5,0,2.9,1.1,3.2,2.6c0.1,0.2,0.3,0.4,0.6,0.4c1.8,0,3.3,1.4,3.3,3.2
	c0,1.5-1,2.9-2.5,3.2c-0.8-1.9-2.6-3.2-4.7-3.4c-0.4-1.5-1.5-2.8-2.9-3.5C18.2,6.8,19.5,5.8,21,5.8z M8.5,12.8
	c0.6,0,1.3,0.1,1.9,0.4c0.3,0.1,0.5,0,0.7-0.3c0,0,0-0.1,0-0.1c0.2-2.5,2.4-4.3,4.9-4c2,0.2,3.6,1.7,4,3.6c0,0.2,0.3,0.4,0.5,0.4
	h0.1c2.6,0.1,4.5,2.3,4.4,4.8c-0.1,2.4-2,4.3-4.4,4.4h-12c-2.6-0.1-4.5-2.3-4.4-4.8C4.2,14.8,6.1,12.9,8.5,12.8L8.5,12.8z"/>
</svg>
