<svg id="Layer_1" data-name="Layer 1" xmlns="http://www.w3.org/2000/svg" viewBox="0 0 32 32"><defs><style>.cls-1{fill:#231f20;}</style></defs><title>Artboard 92</title><path class="cls-1" d="M9.62,26h12A5.49,5.49,0,0,0,26,17.12,5.81,5.81,0,0,0,22.06,7a5.84,5.84,0,0,0-5.5,4,5.47,5.47,0,0,0-5.28,4.26A5.37,5.37,0,0,0,9.62,15a5.52,5.52,0,0,0,0,11ZM22.06,8a4.81,4.81,0,0,1,3.21,8.39A5.44,5.44,0,0,0,21.91,15a5.52,5.52,0,0,0-4.31-3.91A4.84,4.84,0,0,1,22.06,8ZM9.62,16a4.45,4.45,0,0,1,1.85.41.5.5,0,0,0,.7-.4,4.48,4.48,0,0,1,8.86-.4.5.5,0,0,0,.49.4h.1a4.52,4.52,0,0,1,0,9h-12a4.52,4.52,0,0,1,0-9Z"/></svg>