<svg id="Layer_1" data-name="Layer 1" xmlns="http://www.w3.org/2000/svg" viewBox="0 0 32 32"><defs><style>.cls-1{fill:#231f20;}</style></defs><title>Artboard 99</title><path class="cls-1" d="M23.62,11.61a5.51,5.51,0,0,0-5.29-4A5.41,5.41,0,0,0,16,8.15a6.46,6.46,0,0,0-5-5.26.5.5,0,0,0-.6.6,5.54,5.54,0,0,1-6.63,6.63.5.5,0,0,0-.6.6,6.35,6.35,0,0,0,3.16,4.23,5.69,5.69,0,0,0,5,8.05h12a5.71,5.71,0,0,0,.29-11.39Zm-18,1.58a5.51,5.51,0,0,1-1.27-2,6.54,6.54,0,0,0,7.14-7.14A5.49,5.49,0,0,1,15.07,8.7,5.48,5.48,0,0,0,13,11.87a5.37,5.37,0,0,0-1.66-.27,5.49,5.49,0,0,0-4.5,2.47A5.56,5.56,0,0,1,5.65,13.2ZM23.33,22h-12a4.7,4.7,0,0,1,0-9.39,4.45,4.45,0,0,1,1.85.41.5.5,0,0,0,.7-.4,4.48,4.48,0,0,1,8.86-.4.49.49,0,0,0,.5.4h.09a4.7,4.7,0,0,1,0,9.4Z"/><path class="cls-1" d="M6.86,28l2.5-2.5a.5.5,0,0,0-.71-.71l-2.5,2.5a.5.5,0,1,0,.71.71Z"/><path class="cls-1" d="M10.86,28l2.5-2.5a.5.5,0,0,0-.71-.71l-2.5,2.5a.5.5,0,1,0,.71.71Z"/><path class="cls-1" d="M14.86,28l2.5-2.5a.5.5,0,0,0-.71-.71l-2.5,2.5a.5.5,0,1,0,.71.71Z"/><path class="cls-1" d="M18.86,28l2.5-2.5a.5.5,0,0,0-.71-.71l-2.5,2.5a.5.5,0,1,0,.71.71Z"/></svg>